<svg width="120" height="120" viewBox="0 0 120 120" fill="none" xmlns="http://www.w3.org/2000/svg">
<path fill-rule="evenodd" clip-rule="evenodd" d="M60 6C30.1766 6 6 30.1766 6 60C6 89.8236 30.1766 114 60 114C89.8236 114 114 89.8236 114 60C114 30.1766 89.8236 6 60 6ZM15.0771 60C15.0771 35.1898 35.1898 15.0771 60 15.0771C84.81 15.0771 104.923 35.1898 104.923 60C104.923 84.81 84.81 104.923 60 104.923C35.1898 104.923 15.0771 84.81 15.0771 60Z" fill="#E4EBF1"/>
<path d="M79.4094 45.3014C77.409 43.7585 74.5368 44.1292 72.9942 46.1292L54.9047 69.5784L46.7128 60.8904C44.9798 59.0522 42.0851 58.967 40.2472 60.7002C38.4092 62.433 38.3241 65.3274 40.057 67.1658L48.5062 76.1268C49.2074 76.8714 50.0256 77.7402 50.8256 78.3792C51.7787 79.1406 53.3227 80.0916 55.42 79.9878C57.5172 79.884 58.9598 78.7854 59.833 77.9334C60.5658 77.2182 61.2942 76.2732 61.9188 75.4632L80.2374 51.7166C81.78 49.7166 81.4092 46.8444 79.4094 45.3014Z" fill="#E4EBF1"/>
</svg>
