<svg width="120" height="120" viewBox="0 0 120 120" fill="none" xmlns="http://www.w3.org/2000/svg">
<path d="M74.2008 45.7994C72.4284 44.027 69.5544 44.027 67.782 45.7994L60 53.5816L52.2179 45.7994C50.4454 44.027 47.5718 44.027 45.7994 45.7994C44.027 47.5718 44.027 50.4455 45.7994 52.2179L53.5816 60L45.7994 67.782C44.027 69.5544 44.027 72.4284 45.7994 74.2008C47.5718 75.9732 50.4454 75.9732 52.2179 74.2008L60 66.4188L67.782 74.2008C69.5544 75.9732 72.4284 75.9732 74.2008 74.2008C75.9732 72.4284 75.9732 69.5544 74.2008 67.782L66.4188 60L74.2008 52.2179C75.9732 50.4454 75.9732 47.5718 74.2008 45.7994Z" fill="#E4EBF1"/>
<path fill-rule="evenodd" clip-rule="evenodd" d="M60 6C30.1766 6 6 30.1766 6 60C6 89.8236 30.1766 114 60 114C89.8236 114 114 89.8236 114 60C114 30.1766 89.8236 6 60 6ZM15.0771 60C15.0771 35.1898 35.1898 15.0771 60 15.0771C84.81 15.0771 104.923 35.1898 104.923 60C104.923 84.81 84.81 104.923 60 104.923C35.1898 104.923 15.0771 84.81 15.0771 60Z" fill="#E4EBF1"/>
</svg>
