<svg width="22" height="22" viewBox="0 0 22 22" fill="none" xmlns="http://www.w3.org/2000/svg">
<path fill-rule="evenodd" clip-rule="evenodd" d="M5.14278 5.98756C5.58144 3.1826 8.00831 1.03662 10.9364 1.03662C13.8645 1.03662 16.2913 3.1826 16.73 5.98758C17.0867 6.05066 17.4171 6.14353 17.7332 6.28246C18.9237 6.8056 19.8746 7.75644 20.3977 8.94694C20.6359 9.48899 20.7387 10.0728 20.7881 10.7592C20.8364 11.4309 20.8364 12.261 20.8364 13.3086V13.3718C20.8364 14.4194 20.8364 15.2495 20.7881 15.9213C20.7387 16.6076 20.6359 17.1915 20.3977 17.7335C19.8746 18.924 18.9237 19.8748 17.7332 20.398C17.1912 20.6361 16.6074 20.739 15.921 20.7884C15.2493 20.8366 14.4191 20.8366 13.3716 20.8366H8.5012C7.45366 20.8366 6.62345 20.8366 5.95176 20.7884C5.26539 20.739 4.68154 20.6361 4.1395 20.398C2.949 19.8748 1.99816 18.924 1.47502 17.7335C1.23684 17.1915 1.13401 16.6076 1.08466 15.9213C1.03637 15.2495 1.03637 14.4194 1.03638 13.3718V13.3087C1.03637 12.2612 1.03637 11.4309 1.08466 10.7592C1.13401 10.0728 1.23684 9.48899 1.47502 8.94694C1.99816 7.75644 2.949 6.8056 4.1395 6.28246C4.45568 6.14352 4.78609 6.05065 5.14278 5.98756ZM6.84224 5.85415C7.30797 4.02718 8.96441 2.67611 10.9364 2.67611C12.9084 2.67611 14.5648 4.02718 15.0305 5.85415C14.547 5.84382 13.9981 5.84382 13.3716 5.84382H8.5012C7.87466 5.84382 7.32587 5.84382 6.84224 5.85415ZM4.79906 7.78344C5.09763 7.65224 5.47124 7.57038 6.06933 7.52737C6.67534 7.48381 7.44665 7.48331 8.53278 7.48331H13.3399C14.4261 7.48331 15.1974 7.48381 15.8035 7.52737C16.4016 7.57038 16.7751 7.65224 17.0737 7.78344C17.8882 8.14136 18.5389 8.79194 18.8968 9.6065C19.0279 9.90507 19.1099 10.2787 19.1529 10.8768C19.1964 11.4828 19.1969 12.2541 19.1969 13.3403C19.1969 14.4264 19.1964 15.1977 19.1529 15.8037C19.1099 16.4018 19.0279 16.7753 18.8968 17.074C18.5389 17.8885 17.8882 18.5391 17.0737 18.897C16.7751 19.0282 16.4016 19.1101 15.8035 19.1531C15.1974 19.1966 14.4261 19.1971 13.3399 19.1971H8.53278C7.44665 19.1971 6.67534 19.1966 6.06933 19.1531C5.47124 19.1101 5.09763 19.0282 4.79906 18.897C3.9845 18.5391 3.33392 17.8885 2.97599 17.074C2.8448 16.7753 2.76294 16.4018 2.71993 15.8037C2.67637 15.1977 2.67587 14.4264 2.67587 13.3403C2.67587 12.2541 2.67637 11.4828 2.71993 10.8768C2.76294 10.2787 2.8448 9.90507 2.97599 9.6065C3.33392 8.79194 3.9845 8.14136 4.79906 7.78344Z" fill="#F3FAFC"/>
<path fill-rule="evenodd" clip-rule="evenodd" d="M10.9364 11.7564C10.1818 11.7564 9.57016 12.3681 9.57016 13.1226C9.57016 13.8772 10.1818 14.4889 10.9364 14.4889C11.6909 14.4889 12.3027 13.8772 12.3027 13.1226C12.3027 12.3681 11.6909 11.7564 10.9364 11.7564ZM7.93066 13.1226C7.93066 11.4626 9.27638 10.1169 10.9364 10.1169C12.5965 10.1169 13.9421 11.4626 13.9421 13.1226C13.9421 14.7826 12.5965 16.1283 10.9364 16.1283C9.27638 16.1283 7.93066 14.7826 7.93066 13.1226Z" fill="#F3FAFC"/>
</svg>
