<svg width="23" height="22" viewBox="0 0 23 22" fill="none" xmlns="http://www.w3.org/2000/svg">
<path fill-rule="evenodd" clip-rule="evenodd" d="M5.64278 5.98756C6.08144 3.1826 8.50831 1.03662 11.4364 1.03662C14.3645 1.03662 16.7913 3.1826 17.23 5.98758C17.5867 6.05066 17.9171 6.14353 18.2332 6.28246C19.4237 6.8056 20.3746 7.75644 20.8977 8.94694C21.1359 9.48899 21.2387 10.0728 21.2881 10.7592C21.3364 11.4309 21.3364 12.261 21.3364 13.3086V13.3718C21.3364 14.4194 21.3364 15.2495 21.2881 15.9213C21.2387 16.6076 21.1359 17.1915 20.8977 17.7335C20.3746 18.924 19.4237 19.8748 18.2332 20.398C17.6912 20.6361 17.1074 20.739 16.421 20.7884C15.7493 20.8366 14.9191 20.8366 13.8716 20.8366H9.0012C7.95366 20.8366 7.12345 20.8366 6.45176 20.7884C5.76539 20.739 5.18154 20.6361 4.6395 20.398C3.449 19.8748 2.49816 18.924 1.97502 17.7335C1.73684 17.1915 1.63401 16.6076 1.58466 15.9213C1.53637 15.2495 1.53637 14.4194 1.53638 13.3718V13.3087C1.53637 12.2612 1.53637 11.4309 1.58466 10.7592C1.63401 10.0728 1.73684 9.48899 1.97502 8.94694C2.49816 7.75644 3.449 6.8056 4.6395 6.28246C4.95568 6.14352 5.28609 6.05065 5.64278 5.98756ZM7.34224 5.85415C7.80797 4.02718 9.46441 2.67611 11.4364 2.67611C13.4084 2.67611 15.0648 4.02718 15.5305 5.85415C15.047 5.84382 14.4981 5.84382 13.8716 5.84382H9.0012C8.37466 5.84382 7.82587 5.84382 7.34224 5.85415ZM5.29906 7.78344C5.59763 7.65224 5.97124 7.57038 6.56933 7.52737C7.17534 7.48381 7.94665 7.48331 9.03278 7.48331H13.8399C14.9261 7.48331 15.6974 7.48381 16.3035 7.52737C16.9016 7.57038 17.2751 7.65224 17.5737 7.78344C18.3882 8.14136 19.0389 8.79194 19.3968 9.6065C19.5279 9.90507 19.6099 10.2787 19.6529 10.8768C19.6964 11.4828 19.6969 12.2541 19.6969 13.3403C19.6969 14.4264 19.6964 15.1977 19.6529 15.8037C19.6099 16.4018 19.5279 16.7753 19.3968 17.074C19.0389 17.8885 18.3882 18.5391 17.5737 18.897C17.2751 19.0282 16.9016 19.1101 16.3035 19.1531C15.6974 19.1966 14.9261 19.1971 13.8399 19.1971H9.03278C7.94665 19.1971 7.17534 19.1966 6.56933 19.1531C5.97124 19.1101 5.59763 19.0282 5.29906 18.897C4.4845 18.5391 3.83392 17.8885 3.47599 17.074C3.3448 16.7753 3.26294 16.4018 3.21993 15.8037C3.17637 15.1977 3.17587 14.4264 3.17587 13.3403C3.17587 12.2541 3.17637 11.4828 3.21993 10.8768C3.26294 10.2787 3.3448 9.90507 3.47599 9.6065C3.83392 8.79194 4.4845 8.14136 5.29906 7.78344Z" fill="#3393AD"/>
<path fill-rule="evenodd" clip-rule="evenodd" d="M11.4364 11.7564C10.6818 11.7564 10.0702 12.3681 10.0702 13.1226C10.0702 13.8772 10.6818 14.4889 11.4364 14.4889C12.1909 14.4889 12.8027 13.8772 12.8027 13.1226C12.8027 12.3681 12.1909 11.7564 11.4364 11.7564ZM8.43066 13.1226C8.43066 11.4626 9.77638 10.1169 11.4364 10.1169C13.0965 10.1169 14.4421 11.4626 14.4421 13.1226C14.4421 14.7826 13.0965 16.1283 11.4364 16.1283C9.77638 16.1283 8.43066 14.7826 8.43066 13.1226Z" fill="#3393AD"/>
</svg>
