<svg width="22" height="23" viewBox="0 0 22 23" fill="none" xmlns="http://www.w3.org/2000/svg">
<path d="M14.3985 12.0919L9.81521 16.6752C9.73004 16.7604 9.62893 16.828 9.51766 16.8741C9.40638 16.9201 9.28711 16.9439 9.16667 16.9439C9.04622 16.9439 8.92696 16.9201 8.81568 16.8741C8.7044 16.828 8.60329 16.7604 8.51812 16.6752C8.43296 16.5901 8.3654 16.489 8.31931 16.3777C8.27321 16.2664 8.24949 16.1471 8.24949 16.0267C8.24949 15.9062 8.27321 15.787 8.31931 15.6757C8.3654 15.5644 8.43296 15.4633 8.51812 15.3782L11.5374 12.36H0.916667C0.673552 12.36 0.440394 12.2634 0.268485 12.0915C0.0965771 11.9196 0 11.6865 0 11.4434C0 11.2002 0.0965771 10.9671 0.268485 10.7952C0.440394 10.6233 0.673552 10.5267 0.916667 10.5267H11.5374L8.51812 7.50857C8.34612 7.33656 8.24949 7.10328 8.24949 6.86003C8.24949 6.61678 8.34612 6.38349 8.51812 6.21148C8.69013 6.03948 8.92342 5.94285 9.16667 5.94285C9.40992 5.94285 9.6432 6.03948 9.81521 6.21148L14.3985 10.7948C14.4838 10.88 14.5514 10.981 14.5975 11.0923C14.6436 11.2036 14.6674 11.3229 14.6674 11.4434C14.6674 11.5638 14.6436 11.6831 14.5975 11.7944C14.5514 11.9057 14.4838 12.0068 14.3985 12.0919ZM21.0833 0.443359H13.75C13.5069 0.443359 13.2737 0.539937 13.1018 0.711845C12.9299 0.883753 12.8333 1.11691 12.8333 1.36003C12.8333 1.60314 12.9299 1.8363 13.1018 2.00821C13.2737 2.18012 13.5069 2.27669 13.75 2.27669H20.1667V20.61H13.75C13.5069 20.61 13.2737 20.7066 13.1018 20.8785C12.9299 21.0504 12.8333 21.2836 12.8333 21.5267C12.8333 21.7698 12.9299 22.003 13.1018 22.1749C13.2737 22.3468 13.5069 22.4434 13.75 22.4434H21.0833C21.3264 22.4434 21.5596 22.3468 21.7315 22.1749C21.9034 22.003 22 21.7698 22 21.5267V1.36003C22 1.11691 21.9034 0.883753 21.7315 0.711845C21.5596 0.539937 21.3264 0.443359 21.0833 0.443359Z" fill="#3393AD"/>
</svg>
