<svg width="22" height="22" viewBox="0 0 22 22" fill="none" xmlns="http://www.w3.org/2000/svg">
<path d="M14.3985 11.6485L9.81521 16.2319C9.73004 16.317 9.62893 16.3846 9.51766 16.4307C9.40638 16.4768 9.28711 16.5005 9.16667 16.5005C9.04622 16.5005 8.92696 16.4768 8.81568 16.4307C8.7044 16.3846 8.60329 16.317 8.51812 16.2319C8.43296 16.1467 8.3654 16.0456 8.31931 15.9343C8.27321 15.823 8.24949 15.7038 8.24949 15.5833C8.24949 15.4629 8.27321 15.3436 8.31931 15.2323C8.3654 15.1211 8.43296 15.02 8.51812 14.9348L11.5374 11.9167H0.916667C0.673552 11.9167 0.440394 11.8201 0.268485 11.6482C0.0965771 11.4763 0 11.2431 0 11C0 10.7569 0.0965771 10.5237 0.268485 10.3518C0.440394 10.1799 0.673552 10.0833 0.916667 10.0833H11.5374L8.51812 7.06521C8.34612 6.89321 8.24949 6.65992 8.24949 6.41667C8.24949 6.17342 8.34612 5.94013 8.51812 5.76812C8.69013 5.59612 8.92342 5.49949 9.16667 5.49949C9.40992 5.49949 9.6432 5.59612 9.81521 5.76812L14.3985 10.3515C14.4838 10.4366 14.5514 10.5377 14.5975 10.649C14.6436 10.7603 14.6674 10.8795 14.6674 11C14.6674 11.1205 14.6436 11.2397 14.5975 11.351C14.5514 11.4623 14.4838 11.5634 14.3985 11.6485ZM21.0833 0H13.75C13.5069 0 13.2737 0.0965773 13.1018 0.268486C12.9299 0.440394 12.8333 0.673552 12.8333 0.916667C12.8333 1.15978 12.9299 1.39294 13.1018 1.56485C13.2737 1.73676 13.5069 1.83333 13.75 1.83333H20.1667V20.1667H13.75C13.5069 20.1667 13.2737 20.2632 13.1018 20.4352C12.9299 20.6071 12.8333 20.8402 12.8333 21.0833C12.8333 21.3264 12.9299 21.5596 13.1018 21.7315C13.2737 21.9034 13.5069 22 13.75 22H21.0833C21.3264 22 21.5596 21.9034 21.7315 21.7315C21.9034 21.5596 22 21.3264 22 21.0833V0.916667C22 0.673552 21.9034 0.440394 21.7315 0.268486C21.5596 0.0965773 21.3264 0 21.0833 0Z" fill="#F3FAFC"/>
</svg>
