<svg width="24" height="25" viewBox="0 0 24 25" fill="none" xmlns="http://www.w3.org/2000/svg">
<path fill-rule="evenodd" clip-rule="evenodd" d="M12 7.77106C10.5773 7.77106 9.40755 8.25566 8.60002 9.13096C7.80461 9.99311 7.44788 11.1391 7.44788 12.3153C7.44788 13.4914 7.80461 14.6375 8.60002 15.4996C9.40755 16.3749 10.5773 16.8596 12 16.8596C13.4227 16.8596 14.5925 16.3749 15.4 15.4996C16.1955 14.6375 16.5521 13.4914 16.5521 12.3153C16.5521 11.1391 16.1955 9.99311 15.4 9.13096C14.5925 8.25566 13.4227 7.77106 12 7.77106ZM10.0375 10.4526C10.4218 10.0362 11.0395 9.72198 12 9.72198C12.9605 9.72198 13.5783 10.0362 13.9625 10.4526C14.3589 10.8822 14.5978 11.5206 14.5978 12.3153C14.5978 13.1099 14.3589 13.7484 13.9625 14.1779C13.5783 14.5944 12.9605 14.9086 12 14.9086C11.0395 14.9086 10.4218 14.5944 10.0375 14.1779C9.64124 13.7484 9.4022 13.1099 9.4022 12.3153C9.4022 11.5206 9.64124 10.8822 10.0375 10.4526Z" fill="#3393AD"/>
<path fill-rule="evenodd" clip-rule="evenodd" d="M12 2.71533C7.33556 2.71533 4.30438 4.29898 2.44859 6.34738C0.62196 8.36361 0 10.7581 0 12.3153C0 13.8726 0.62196 16.2671 2.44859 18.2833C4.30438 20.3317 7.33556 21.9153 12 21.9153C16.6644 21.9153 19.6956 20.3317 21.5514 18.2833C23.378 16.2671 24 13.8726 24 12.3153C24 10.7581 23.378 8.36361 21.5514 6.34738C19.6956 4.29898 16.6644 2.71533 12 2.71533ZM3.8151 7.54297C5.2849 5.92062 7.7963 4.51332 12 4.51332C16.2037 4.51332 18.7151 5.92062 20.185 7.54297C21.6839 9.19749 22.1704 11.1535 22.1704 12.3153C22.1704 13.4772 21.6839 15.4332 20.185 17.0877C18.7151 18.71 16.2037 20.1174 12 20.1174C7.7963 20.1174 5.2849 18.71 3.8151 17.0877C2.31616 15.4332 1.82962 13.4772 1.82962 12.3153C1.82962 11.1535 2.31616 9.19749 3.8151 7.54297Z" fill="#3393AD"/>
</svg>
