<svg width="24" height="24" viewBox="0 0 24 24" fill="none" xmlns="http://www.w3.org/2000/svg">
<path fill-rule="evenodd" clip-rule="evenodd" d="M1.65017 0.268443C1.30052 -0.0830316 0.733621 -0.0830316 0.383968 0.268443C0.0343153 0.619917 0.0343153 1.18977 0.383968 1.54125L3.71334 4.88795C3.24182 5.25484 2.82148 5.64972 2.44859 6.06346C0.62196 8.09019 0 10.4972 0 12.0625C0 13.6278 0.62196 16.0348 2.44859 18.0616C4.30438 20.1206 7.33556 21.7124 12 21.7124C14.8883 21.7124 17.1503 21.1021 18.8947 20.1485L22.4689 23.7413C22.8186 24.0928 23.3855 24.0928 23.7352 23.7413C24.0847 23.3898 24.0847 22.8199 23.7352 22.4684L1.65017 0.268443ZM17.553 18.7997L14.6615 15.8932C13.9363 16.3726 13.0351 16.6304 12 16.6304C10.5773 16.6304 9.40753 16.1432 8.6 15.2634C7.8046 14.3968 7.44786 13.2448 7.44786 12.0625C7.44786 11.1065 7.68109 10.1703 8.19088 9.38881L5.00539 6.18674C4.54798 6.52498 4.15387 6.88938 3.8151 7.26526C2.31616 8.92841 1.82962 10.8946 1.82962 12.0625C1.82962 13.2304 2.31616 15.1966 3.8151 16.8598C5.2849 18.4906 7.7963 19.9051 12 19.9051C14.3366 19.9051 16.1504 19.4681 17.553 18.7997ZM9.62996 10.8354C9.48352 11.184 9.40218 11.5965 9.40218 12.0625C9.40218 12.8614 9.64122 13.503 10.0375 13.9349C10.4217 14.3534 11.0395 14.6693 12 14.6693C12.4936 14.6693 12.8965 14.5859 13.2239 14.448L9.62996 10.8354Z" fill="#3393AD"/>
<path d="M22.1704 12.0625C22.1704 13.1676 21.7348 14.9874 20.418 16.589L21.707 17.8847C23.4136 15.8962 24 13.5826 24 12.0625C24 10.4972 23.3781 8.09018 21.5514 6.06345C19.6956 4.00437 16.6644 2.41248 12 2.41248C10.0813 2.41248 8.43891 2.68185 7.04102 3.1423L8.49778 4.60665C9.50955 4.36141 10.6701 4.21982 12 4.21982C16.2038 4.21982 18.7151 5.63445 20.185 7.26525C21.6839 8.9284 22.1704 10.8946 22.1704 12.0625Z" fill="#3393AD"/>
<path d="M16.5198 12.6706L11.4006 7.52469C11.5949 7.50471 11.7948 7.49458 12 7.49458C13.4227 7.49458 14.5925 7.98172 15.3999 8.86156C16.1954 9.7282 16.5521 10.8802 16.5521 12.0625C16.5521 12.2665 16.5415 12.4697 16.5198 12.6706Z" fill="#3393AD"/>
</svg>
