<svg width="120" height="120" viewBox="0 0 120 120" fill="none" xmlns="http://www.w3.org/2000/svg">
<path fill-rule="evenodd" clip-rule="evenodd" d="M49.534 6C35.8725 6 23.7654 15.931 23.7654 29.387C23.7654 42.8429 35.8725 52.7739 49.534 52.7739C63.1956 52.7739 75.3024 42.8429 75.3024 29.387C75.3024 15.931 63.1956 6 49.534 6ZM32.602 29.387C32.602 21.9407 39.6194 14.938 49.534 14.938C59.4486 14.938 66.4662 21.9407 66.4662 29.387C66.4662 36.8332 59.4486 43.8359 49.534 43.8359C39.6194 43.8359 32.602 36.8332 32.602 29.387Z" fill="#E4EBF1"/>
<path fill-rule="evenodd" clip-rule="evenodd" d="M77.0622 66.2256C60.1638 55.6338 38.9041 55.6338 22.0058 66.2256C12.0579 72.4608 6.00004 83.5494 6.00004 95.4888V98.2506C5.99972 99.3132 5.99947 100.193 6.08476 100.991C6.81058 107.779 12.0418 113.164 18.6977 113.912C19.4787 114.001 20.3397 114 21.3733 114H77.6946C78.7284 114 79.5894 114.001 80.3706 113.912C87.0264 113.164 92.2578 107.779 92.9832 100.991C93.069 100.193 93.0684 99.3132 93.0684 98.2506V95.4888C93.0684 83.5494 87.0102 72.4608 77.0622 66.2256ZM26.7083 74.0442C40.7218 65.2608 58.3463 65.2608 72.36 74.0442C79.635 78.6042 84.081 86.7258 84.081 95.4888V98.0094C84.081 99.4266 84.0744 99.7626 84.0492 99.9954C83.7774 102.536 81.8268 104.518 79.386 104.793C79.1634 104.818 78.8406 104.825 77.457 104.825H21.6111C20.2275 104.825 19.9045 104.818 19.682 104.793C17.2415 104.518 15.2905 102.536 15.0188 99.9954C14.9939 99.7626 14.9872 99.4266 14.9872 98.0094V95.4888C14.9872 86.7258 19.4334 78.6042 26.7083 74.0442Z" fill="#E4EBF1"/>
<path d="M112.771 7.93302C110.857 6.3747 108.041 6.66366 106.483 8.57838L96.2226 21.1854L91.2936 16.8723C89.4354 15.2467 86.6118 15.4349 84.9858 17.2928C83.3604 19.1507 83.5488 21.9747 85.4064 23.6003L90.5922 28.1378C91.26 28.7231 92.0592 29.4229 92.8296 29.9314C93.7608 30.5461 95.1996 31.2643 97.062 31.1067C98.9244 30.9491 100.223 29.9992 101.038 29.2368C101.711 28.6061 102.381 27.7822 102.941 27.0931L113.417 14.2215C114.975 12.3068 114.686 9.49134 112.771 7.93302Z" fill="#E4EBF1"/>
</svg>
