<svg width="22" height="22" viewBox="0 0 22 22" fill="none" xmlns="http://www.w3.org/2000/svg">
<path d="M20.6112 8.52696C20.241 8.14 19.8579 7.74125 19.7136 7.39062C19.58 7.06946 19.5721 6.53714 19.5643 6.02152C19.5496 5.06295 19.5338 3.9767 18.7786 3.22143C18.0233 2.46616 16.9371 2.45045 15.9785 2.43571C15.4629 2.42786 14.9305 2.42 14.6094 2.28643C14.2597 2.14205 13.86 1.75902 13.473 1.38875C12.7954 0.737589 12.0254 0 11 0C9.97464 0 9.20562 0.737589 8.52696 1.38875C8.14 1.75902 7.74125 2.14205 7.39062 2.28643C7.07143 2.42 6.53714 2.42786 6.02152 2.43571C5.06295 2.45045 3.9767 2.46616 3.22143 3.22143C2.46616 3.9767 2.45536 5.06295 2.43571 6.02152C2.42786 6.53714 2.42 7.06946 2.28643 7.39062C2.14205 7.74027 1.75902 8.14 1.38875 8.52696C0.737589 9.20464 0 9.97464 0 11C0 12.0254 0.737589 12.7944 1.38875 13.473C1.75902 13.86 2.14205 14.2587 2.28643 14.6094C2.42 14.9305 2.42786 15.4629 2.43571 15.9785C2.45045 16.9371 2.46616 18.0233 3.22143 18.7786C3.9767 19.5338 5.06295 19.5496 6.02152 19.5643C6.53714 19.5721 7.06946 19.58 7.39062 19.7136C7.74027 19.8579 8.14 20.241 8.52696 20.6112C9.20464 21.2624 9.97464 22 11 22C12.0254 22 12.7944 21.2624 13.473 20.6112C13.86 20.241 14.2587 19.8579 14.6094 19.7136C14.9305 19.58 15.4629 19.5721 15.9785 19.5643C16.9371 19.5496 18.0233 19.5338 18.7786 18.7786C19.5338 18.0233 19.5496 16.9371 19.5643 15.9785C19.5721 15.4629 19.58 14.9305 19.7136 14.6094C19.8579 14.2597 20.241 13.86 20.6112 13.473C21.2624 12.7954 22 12.0254 22 11C22 9.97464 21.2624 9.20562 20.6112 8.52696ZM19.4769 12.3858C19.0064 12.8769 18.5193 13.3846 18.261 14.0083C18.0135 14.6074 18.0027 15.292 17.9929 15.9549C17.983 16.6424 17.9722 17.3623 17.6668 17.6668C17.3613 17.9713 16.6463 17.983 15.9549 17.9929C15.292 18.0027 14.6074 18.0135 14.0083 18.261C13.3846 18.5193 12.8769 19.0064 12.3858 19.4769C11.8947 19.9473 11.3929 20.4286 11 20.4286C10.6071 20.4286 10.1013 19.9454 9.6142 19.4769C9.12705 19.0084 8.61536 18.5193 7.9917 18.261C7.39259 18.0135 6.70804 18.0027 6.04509 17.9929C5.35759 17.983 4.63768 17.9722 4.33321 17.6668C4.02875 17.3613 4.01696 16.6463 4.00714 15.9549C3.99732 15.292 3.98652 14.6074 3.73902 14.0083C3.48071 13.3846 2.99357 12.8769 2.52312 12.3858C2.05268 11.8947 1.57143 11.3929 1.57143 11C1.57143 10.6071 2.05464 10.1013 2.52312 9.6142C2.99161 9.12705 3.48071 8.61536 3.73902 7.9917C3.98652 7.39259 3.99732 6.70804 4.00714 6.04509C4.01696 5.35759 4.02777 4.63768 4.33321 4.33321C4.63866 4.02875 5.35366 4.01696 6.04509 4.00714C6.70804 3.99732 7.39259 3.98652 7.9917 3.73902C8.61536 3.48071 9.12313 2.99357 9.6142 2.52312C10.1053 2.05268 10.6071 1.57143 11 1.57143C11.3929 1.57143 11.8987 2.05464 12.3858 2.52312C12.8729 2.99161 13.3846 3.48071 14.0083 3.73902C14.6074 3.98652 15.292 3.99732 15.9549 4.00714C16.6424 4.01696 17.3623 4.02777 17.6668 4.33321C17.9713 4.63866 17.983 5.35366 17.9929 6.04509C18.0027 6.70804 18.0135 7.39259 18.261 7.9917C18.5193 8.61536 19.0064 9.12313 19.4769 9.6142C19.9473 10.1053 20.4286 10.6071 20.4286 11C20.4286 11.3929 19.9454 11.8987 19.4769 12.3858ZM15.4845 8.08696C15.5575 8.15993 15.6155 8.24659 15.655 8.34198C15.6946 8.43736 15.7149 8.5396 15.7149 8.64286C15.7149 8.74611 15.6946 8.84835 15.655 8.94374C15.6155 9.03912 15.5575 9.12578 15.4845 9.19875L9.98446 14.6988C9.91149 14.7718 9.82484 14.8298 9.72945 14.8693C9.63407 14.9088 9.53183 14.9292 9.42857 14.9292C9.32532 14.9292 9.22307 14.9088 9.12769 14.8693C9.03231 14.8298 8.94565 14.7718 8.87268 14.6988L6.51554 12.3416C6.3681 12.1942 6.28528 11.9942 6.28528 11.7857C6.28528 11.5772 6.3681 11.3773 6.51554 11.2298C6.66297 11.0824 6.86293 10.9996 7.07143 10.9996C7.27993 10.9996 7.47989 11.0824 7.62732 11.2298L9.42857 13.0321L14.3727 8.08696C14.4456 8.01391 14.5323 7.95596 14.6277 7.91642C14.7231 7.87688 14.8253 7.85652 14.9286 7.85652C15.0318 7.85652 15.1341 7.87688 15.2295 7.91642C15.3248 7.95596 15.4115 8.01391 15.4845 8.08696Z" fill="#3393AD"/>
</svg>
