<svg width="120" height="120" viewBox="0 0 120 120" fill="none" xmlns="http://www.w3.org/2000/svg">
<path d="M105.872 48.1969C104.105 46.35 102.277 44.4469 101.588 42.7734C100.95 41.2406 100.912 38.7 100.875 36.2391C100.805 31.6641 100.73 26.4797 97.125 22.875C93.5203 19.2703 88.3359 19.1953 83.7609 19.125C81.3 19.0875 78.7594 19.05 77.2266 18.4125C75.5578 17.7234 73.65 15.8953 71.8031 14.1281C68.5687 11.0203 64.8937 7.5 60 7.5C55.1063 7.5 51.4359 11.0203 48.1969 14.1281C46.35 15.8953 44.4469 17.7234 42.7734 18.4125C41.25 19.05 38.7 19.0875 36.2391 19.125C31.6641 19.1953 26.4797 19.2703 22.875 22.875C19.2703 26.4797 19.2188 31.6641 19.125 36.2391C19.0875 38.7 19.05 41.2406 18.4125 42.7734C17.7234 44.4422 15.8953 46.35 14.1281 48.1969C11.0203 51.4313 7.5 55.1063 7.5 60C7.5 64.8937 11.0203 68.5641 14.1281 71.8031C15.8953 73.65 17.7234 75.5531 18.4125 77.2266C19.05 78.7594 19.0875 81.3 19.125 83.7609C19.1953 88.3359 19.2703 93.5203 22.875 97.125C26.4797 100.73 31.6641 100.805 36.2391 100.875C38.7 100.912 41.2406 100.95 42.7734 101.588C44.4422 102.277 46.35 104.105 48.1969 105.872C51.4313 108.98 55.1063 112.5 60 112.5C64.8937 112.5 68.5641 108.98 71.8031 105.872C73.65 104.105 75.5531 102.277 77.2266 101.588C78.7594 100.95 81.3 100.912 83.7609 100.875C88.3359 100.805 93.5203 100.73 97.125 97.125C100.73 93.5203 100.805 88.3359 100.875 83.7609C100.912 81.3 100.95 78.7594 101.588 77.2266C102.277 75.5578 104.105 73.65 105.872 71.8031C108.98 68.5687 112.5 64.8937 112.5 60C112.5 55.1063 108.98 51.4359 105.872 48.1969ZM100.458 66.6141C98.2125 68.9578 95.8875 71.3813 94.6547 74.3578C93.4734 77.2172 93.4219 80.4844 93.375 83.6484C93.3281 86.9297 93.2766 90.3656 91.8188 91.8188C90.3609 93.2719 86.9484 93.3281 83.6484 93.375C80.4844 93.4219 77.2172 93.4734 74.3578 94.6547C71.3813 95.8875 68.9578 98.2125 66.6141 100.458C64.2703 102.703 61.875 105 60 105C58.125 105 55.7109 102.694 53.3859 100.458C51.0609 98.2219 48.6188 95.8875 45.6422 94.6547C42.7828 93.4734 39.5156 93.4219 36.3516 93.375C33.0703 93.3281 29.6344 93.2766 28.1812 91.8188C26.7281 90.3609 26.6719 86.9484 26.625 83.6484C26.5781 80.4844 26.5266 77.2172 25.3453 74.3578C24.1125 71.3813 21.7875 68.9578 19.5422 66.6141C17.2969 64.2703 15 61.875 15 60C15 58.125 17.3062 55.7109 19.5422 53.3859C21.7781 51.0609 24.1125 48.6188 25.3453 45.6422C26.5266 42.7828 26.5781 39.5156 26.625 36.3516C26.6719 33.0703 26.7234 29.6344 28.1812 28.1812C29.6391 26.7281 33.0516 26.6719 36.3516 26.625C39.5156 26.5781 42.7828 26.5266 45.6422 25.3453C48.6188 24.1125 51.0422 21.7875 53.3859 19.5422C55.7297 17.2969 58.125 15 60 15C61.875 15 64.2891 17.3062 66.6141 19.5422C68.9391 21.7781 71.3813 24.1125 74.3578 25.3453C77.2172 26.5266 80.4844 26.5781 83.6484 26.625C86.9297 26.6719 90.3656 26.7234 91.8188 28.1812C93.2719 29.6391 93.3281 33.0516 93.375 36.3516C93.4219 39.5156 93.4734 42.7828 94.6547 45.6422C95.8875 48.6188 98.2125 51.0422 100.458 53.3859C102.703 55.7297 105 58.125 105 60C105 61.875 102.694 64.2891 100.458 66.6141ZM81.4031 46.0969C81.7518 46.4451 82.0284 46.8587 82.2171 47.314C82.4058 47.7692 82.5029 48.2572 82.5029 48.75C82.5029 49.2428 82.4058 49.7308 82.2171 50.186C82.0284 50.6413 81.7518 51.0549 81.4031 51.4031L55.1531 77.6531C54.8049 78.0018 54.3913 78.2784 53.936 78.4671C53.4808 78.6558 52.9928 78.7529 52.5 78.7529C52.0072 78.7529 51.5192 78.6558 51.064 78.4671C50.6087 78.2784 50.1951 78.0018 49.8469 77.6531L38.5969 66.4031C37.8932 65.6995 37.4979 64.7451 37.4979 63.75C37.4979 62.7549 37.8932 61.8005 38.5969 61.0969C39.3005 60.3932 40.2549 59.9979 41.25 59.9979C42.2451 59.9979 43.1995 60.3932 43.9031 61.0969L52.5 69.6984L76.0969 46.0969C76.4451 45.7482 76.8587 45.4716 77.314 45.2829C77.7692 45.0942 78.2572 44.9971 78.75 44.9971C79.2428 44.9971 79.7308 45.0942 80.186 45.2829C80.6413 45.4716 81.0549 45.7482 81.4031 46.0969Z" fill="#E4EBF1"/>
</svg>
