<svg width="120" height="120" viewBox="0 0 120 120" fill="none" xmlns="http://www.w3.org/2000/svg">
<path fill-rule="evenodd" clip-rule="evenodd" d="M45.1215 15.7294C49.1485 10.0804 53.714 6 60 6C66.2862 6 70.8516 10.0804 74.8782 15.7294C78.8658 21.323 83.0934 29.5597 88.4352 39.9684L101.833 66.0732C106.529 75.222 110.27 82.5126 112.274 88.3854C114.319 94.3788 114.94 99.9834 111.937 105.05C108.934 110.116 103.78 112.154 97.6296 113.087C91.6032 114 83.5392 114 73.4196 114H46.5801C36.4606 114 28.397 114 22.3705 113.087C16.2196 112.154 11.0663 110.116 8.06292 105.05C5.05957 99.9834 5.68142 94.3788 7.72614 88.3854C9.72954 82.5126 13.4713 75.2226 18.167 66.0732L31.5649 39.9682C36.9068 29.5596 41.134 21.323 45.1215 15.7294ZM64.5 44.625C64.5 42.1397 62.4852 40.125 60 40.125C57.5147 40.125 55.5 42.1397 55.5 44.625V68.625C55.5 71.1102 57.5147 73.125 60 73.125C62.4852 73.125 64.5 71.1102 64.5 68.625V44.625ZM60 92.625C63.3138 92.625 66 89.9388 66 86.625C66 83.3112 63.3138 80.625 60 80.625C56.6863 80.625 54 83.3112 54 86.625C54 89.9388 56.6863 92.625 60 92.625Z" fill="#E4EBF1"/>
</svg>
